<svg xmlns="http://www.w3.org/2000/svg" version="1.1" xmlns:xlink="http://www.w3.org/1999/xlink" xmlns:svgjs="http://svgjs.com/svgjs" width="1440" height="560" preserveAspectRatio="none" viewBox="0 0 1440 560"><g mask="url(&quot;#SvgjsMask1009&quot;)" fill="none"><path d="M514.2 16.14L501.82 19.42 495.91 8.06 483.52 11.34 477.61-0.02 465.23 3.25 459.32-8.11M517.43 8.83L505.05 12.1 499.14 0.74 486.76 4.02 480.85-7.34 468.46-4.06 462.55-15.42" stroke="#037b0b" stroke-width="1.8" stroke-dasharray="4, 4"></path><path d="M687.35 456.43L689.67 443.83 702.47 443.33 704.79 430.74 717.59 430.24 719.91 417.65 732.71 417.15" stroke="#e73635" stroke-width="1.79" stroke-dasharray="2, 2"></path><path d="M104.94 496a5.6 5.6 0 1 0 9.36 6.16 5.6 5.6 0 1 0-9.36-6.16zM118.31 504.8a5.6 5.6 0 1 0 9.35 6.16 5.6 5.6 0 1 0-9.35-6.16zM131.67 513.6a5.6 5.6 0 1 0 9.35 6.17 5.6 5.6 0 1 0-9.35-6.17zM145.03 522.41a5.6 5.6 0 1 0 9.35 6.16 5.6 5.6 0 1 0-9.35-6.16zM69.42 491.76a5.6 5.6 0 1 0 9.35 6.16 5.6 5.6 0 1 0-9.35-6.16zM82.78 500.56a5.6 5.6 0 1 0 9.35 6.17 5.6 5.6 0 1 0-9.35-6.17zM96.14 509.37a5.6 5.6 0 1 0 9.36 6.16 5.6 5.6 0 1 0-9.36-6.16zM109.51 518.17a5.6 5.6 0 1 0 9.35 6.16 5.6 5.6 0 1 0-9.35-6.16zM33.89 487.53a5.6 5.6 0 1 0 9.36 6.16 5.6 5.6 0 1 0-9.36-6.16zM47.26 496.33a5.6 5.6 0 1 0 9.35 6.16 5.6 5.6 0 1 0-9.35-6.16zM60.62 505.13a5.6 5.6 0 1 0 9.35 6.16 5.6 5.6 0 1 0-9.35-6.16zM73.98 513.93a5.6 5.6 0 1 0 9.35 6.16 5.6 5.6 0 1 0-9.35-6.16z" fill="#037b0b"></path><path d="M1436.28 139.33 L1458.98 243.76L1405.9040504551572 233.2709495448429z" stroke="#d3b714" stroke-width="1.79" stroke-dasharray="2, 2"></path><path d="M772.51 313.41L773.38 326.18 761.1 329.83 761.96 342.61 749.68 346.25 750.55 359.03 738.27 362.68" stroke="#d3b714" stroke-width="1.07"></path><rect width="63.8" height="63.8" clip-path="url(&quot;#SvgjsClipPath1010&quot;)" x="878.87" y="336.6" fill="url(#SvgjsPattern1011)" transform="rotate(165.76, 910.77, 368.5)"></rect><rect width="169.4" height="169.4" clip-path="url(&quot;#SvgjsClipPath1012&quot;)" x="437.54" y="308.09" fill="url(#SvgjsPattern1013)" transform="rotate(52.58, 522.24, 392.79)"></rect><rect width="132" height="132" clip-path="url(&quot;#SvgjsClipPath1014&quot;)" x="263.44" y="-59.78" fill="url(#SvgjsPattern1015)" transform="rotate(204.72, 329.44, 6.22)"></rect><path d="M628.06 42.6L635.13 31.92 647.1 36.47 654.17 25.79 666.14 30.34 673.21 19.66 685.18 24.22" stroke="#d3b714" stroke-width="1"></path><rect width="360" height="360" clip-path="url(&quot;#SvgjsClipPath1016&quot;)" x="-35.69" y="-178.23" fill="url(#SvgjsPattern1017)" transform="rotate(235.32, 144.31, 1.77)"></rect><path d="M1134.54 135.54L1144.53 143.56 1138.91 155.06 1148.9 163.08 1143.27 174.58 1153.26 182.6 1147.63 194.1M1126.74 137.29L1136.73 145.3 1131.1 156.81 1141.09 164.82 1135.46 176.33 1145.45 184.34 1139.83 195.84" stroke="#e73635" stroke-width="2.96"></path><path d="M470.43 616.67 L382.43 556.62L500.4984345026672 512.5765654973328z" stroke="#d3b714" stroke-width="1.91" stroke-dasharray="3, 3"></path></g><defs><mask id="SvgjsMask1009"><rect width="1440" height="560" fill="#ffffff"></rect></mask><pattern x="0" y="0" width="63.8" height="6.38" patternUnits="userSpaceOnUse" id="SvgjsPattern1011"><rect width="63.8" height="3.19" x="0" y="0" fill="#e73635"></rect><rect width="63.8" height="3.19" x="0" y="3.19" fill="rgba(0, 0, 0, 0)"></rect></pattern><clipPath id="SvgjsClipPath1010"><circle r="15.95" cx="910.77" cy="368.5"></circle></clipPath><pattern x="0" y="0" width="12.1" height="12.1" patternUnits="userSpaceOnUse" id="SvgjsPattern1013"><path d="M0 12.1L6.05 0L12.1 12.1" stroke="#e73635" fill="none"></path></pattern><clipPath id="SvgjsClipPath1012"><circle r="42.35" cx="522.24" cy="392.79"></circle></clipPath><pattern x="0" y="0" width="6" height="6" patternUnits="userSpaceOnUse" id="SvgjsPattern1015"><path d="M0 6L3 0L6 6" stroke="#037b0b" fill="none"></path></pattern><clipPath id="SvgjsClipPath1014"><circle r="33" cx="329.44" cy="6.22"></circle></clipPath><pattern x="0" y="0" width="360" height="6" patternUnits="userSpaceOnUse" id="SvgjsPattern1017"><rect width="360" height="3" x="0" y="0" fill="#d3b714"></rect><rect width="360" height="3" x="0" y="3" fill="rgba(0, 0, 0, 0)"></rect></pattern><clipPath id="SvgjsClipPath1016"><circle r="90" cx="144.31" cy="1.77"></circle></clipPath></defs></svg>