<svg xmlns="http://www.w3.org/2000/svg" version="1.1" xmlns:xlink="http://www.w3.org/1999/xlink" xmlns:svgjs="http://svgjs.com/svgjs" width="1440" height="560" preserveAspectRatio="none" viewBox="0 0 1440 560"><g mask="url(&quot;#SvgjsMask1080&quot;)" fill="none"><path d="M1064.08 387.19L1068.08 399.36 1057.09 405.93 1061.1 418.1 1050.11 424.67 1054.11 436.84 1043.12 443.42M1056.58 384.4L1060.59 396.56 1049.6 403.14 1053.6 415.3 1042.61 421.88 1046.62 434.05 1035.63 440.62M1049.09 381.61L1053.09 393.77 1042.1 400.35 1046.11 412.51 1035.12 419.09 1039.12 431.25 1028.13 437.83" stroke="#e73635" stroke-width="1" stroke-dasharray="3, 2"></path><rect width="181.79999999999998" height="181.79999999999998" clip-path="url(&quot;#SvgjsClipPath1081&quot;)" x="252.62" y="9.81" fill="url(#SvgjsPattern1082)" transform="rotate(356.99, 343.52, 100.71)"></rect><path d="M1043.18 33.79L1042.76 20.99 1055.16 17.78 1054.74 4.98 1067.13 1.76 1066.72-11.04 1079.11-14.26M1049.59 38.58L1049.17 25.78 1061.56 22.57 1061.15 9.77 1073.54 6.55 1073.12-6.25 1085.52-9.47M1055.99 43.38L1055.57 30.58 1067.97 27.36 1067.55 14.56 1079.95 11.34 1079.53-1.46 1091.93-4.67" stroke="#037b0b" stroke-width="2.67" stroke-dasharray="4, 4"></path><path d="M247.59 211.47a5.6 5.6 0 1 0 11.06 1.74 5.6 5.6 0 1 0-11.06-1.74zM263.4 213.96a5.6 5.6 0 1 0 11.06 1.74 5.6 5.6 0 1 0-11.06-1.74zM279.2 216.45a5.6 5.6 0 1 0 11.06 1.74 5.6 5.6 0 1 0-11.06-1.74zM295.01 218.94a5.6 5.6 0 1 0 11.06 1.74 5.6 5.6 0 1 0-11.06-1.74zM213.49 222.3a5.6 5.6 0 1 0 11.06 1.74 5.6 5.6 0 1 0-11.06-1.74zM229.3 224.78a5.6 5.6 0 1 0 11.06 1.75 5.6 5.6 0 1 0-11.06-1.75zM245.1 227.27a5.6 5.6 0 1 0 11.06 1.75 5.6 5.6 0 1 0-11.06-1.75zM260.91 229.76a5.6 5.6 0 1 0 11.06 1.74 5.6 5.6 0 1 0-11.06-1.74zM179.39 233.12a5.6 5.6 0 1 0 11.06 1.74 5.6 5.6 0 1 0-11.06-1.74zM195.2 235.61a5.6 5.6 0 1 0 11.06 1.74 5.6 5.6 0 1 0-11.06-1.74zM211 238.1a5.6 5.6 0 1 0 11.06 1.74 5.6 5.6 0 1 0-11.06-1.74zM226.81 240.59a5.6 5.6 0 1 0 11.06 1.74 5.6 5.6 0 1 0-11.06-1.74z" stroke="#e73635" stroke-width="2.13" stroke-dasharray="3, 3"></path><path d="M1293.19 34.43a5.6 5.6 0 1 0 9.36 6.15 5.6 5.6 0 1 0-9.36-6.15zM1306.56 43.21a5.6 5.6 0 1 0 9.37 6.15 5.6 5.6 0 1 0-9.37-6.15zM1319.94 51.99a5.6 5.6 0 1 0 9.36 6.15 5.6 5.6 0 1 0-9.36-6.15zM1333.32 60.77a5.6 5.6 0 1 0 9.36 6.15 5.6 5.6 0 1 0-9.36-6.15zM1257.66 30.25a5.6 5.6 0 1 0 9.36 6.15 5.6 5.6 0 1 0-9.36-6.15zM1271.03 39.03a5.6 5.6 0 1 0 9.36 6.14 5.6 5.6 0 1 0-9.36-6.14zM1284.41 47.81a5.6 5.6 0 1 0 9.36 6.14 5.6 5.6 0 1 0-9.36-6.14zM1297.78 56.59a5.6 5.6 0 1 0 9.37 6.14 5.6 5.6 0 1 0-9.37-6.14zM1222.12 26.07a5.6 5.6 0 1 0 9.37 6.14 5.6 5.6 0 1 0-9.37-6.14zM1235.5 34.85a5.6 5.6 0 1 0 9.36 6.14 5.6 5.6 0 1 0-9.36-6.14zM1248.88 43.63a5.6 5.6 0 1 0 9.36 6.14 5.6 5.6 0 1 0-9.36-6.14zM1262.25 52.4a5.6 5.6 0 1 0 9.37 6.15 5.6 5.6 0 1 0-9.37-6.15z" stroke="#037b0b" stroke-width="2.17" stroke-dasharray="2, 2"></path><rect width="101.4" height="101.4" clip-path="url(&quot;#SvgjsClipPath1083&quot;)" x="524.85" y="91.61" fill="url(#SvgjsPattern1084)" transform="rotate(105.65, 575.55, 142.31)"></rect><path d="M1406.14 645.55 L1289.74 636.49L1400.6397671437458 588.3202328562543z" fill="#037b0b"></path><path d="M256.32 71.95L248.86 82.36 237.07 77.38 229.62 87.8 217.82 82.81 210.37 93.23 198.57 88.25M254.14 64.25L246.69 74.67 234.89 69.68 227.44 80.1 215.65 75.11 208.2 85.53 196.4 80.55" stroke="#037b0b" stroke-width="1" stroke-dasharray="4, 4"></path><rect width="156" height="156" clip-path="url(&quot;#SvgjsClipPath1085&quot;)" x="805.19" y="478.32" fill="url(#SvgjsPattern1086)" transform="rotate(282.35, 883.19, 556.32)"></rect><path d="M718.96 518.36a5.6 5.6 0 1 0-10.91-2.53 5.6 5.6 0 1 0 10.91 2.53zM703.37 514.74a5.6 5.6 0 1 0-10.91-2.53 5.6 5.6 0 1 0 10.91 2.53zM687.78 511.13a5.6 5.6 0 1 0-10.91-2.53 5.6 5.6 0 1 0 10.91 2.53zM672.2 507.52a5.6 5.6 0 1 0-10.91-2.53 5.6 5.6 0 1 0 10.91 2.53z" fill="#d3b714"></path><path d="M1336.3899999999999 347.90000000000003 L1205.83 333.45L1211.5549658126185 400.2300341873814z" stroke="#037b0b" stroke-width="2.04"></path><circle r="75.23399121371433" cx="1095.91" cy="198.9" stroke="#037b0b" stroke-width="1" stroke-dasharray="2, 2"></circle></g><defs><mask id="SvgjsMask1080"><rect width="1440" height="560" fill="#ffffff"></rect></mask><pattern x="0" y="0" width="10.1" height="10.1" patternUnits="userSpaceOnUse" id="SvgjsPattern1082"><path d="M0 10.1L5.05 0L10.1 10.1" stroke="#e73635" fill="none"></path></pattern><clipPath id="SvgjsClipPath1081"><circle r="45.449999999999996" cx="343.52" cy="100.71"></circle></clipPath><pattern x="0" y="0" width="10.14" height="10.14" patternUnits="userSpaceOnUse" id="SvgjsPattern1084"><path d="M5.07 1L5.07 9.14M1 5.07L9.14 5.07" stroke="#d3b714" fill="none" stroke-width="1.01"></path></pattern><clipPath id="SvgjsClipPath1083"><circle r="25.35" cx="575.55" cy="142.31"></circle></clipPath><pattern x="0" y="0" width="6" height="6" patternUnits="userSpaceOnUse" id="SvgjsPattern1086"><path d="M0 6L3 0L6 6" stroke="#d3b714" fill="none"></path></pattern><clipPath id="SvgjsClipPath1085"><circle r="39" cx="883.19" cy="556.32"></circle></clipPath></defs></svg>