<svg xmlns="http://www.w3.org/2000/svg" version="1.1" xmlns:xlink="http://www.w3.org/1999/xlink" xmlns:svgjs="http://svgjs.com/svgjs" width="1440" height="560" preserveAspectRatio="none" viewBox="0 0 1440 560"><g mask="url(&quot;#SvgjsMask1026&quot;)" fill="none"><path d="M1355.902,123.301C1372.703,122.545,1386.095,111.223,1394.851,96.864C1404.073,81.741,1409.949,63.595,1401.943,47.795C1393.258,30.655,1375.117,20.019,1355.902,19.995C1336.647,19.971,1319.122,30.909,1309.658,47.678C1300.353,64.165,1300.496,84.511,1310.373,100.663C1319.85,116.161,1337.754,124.117,1355.902,123.301" fill="rgba(28, 83, 142, 0.4)" class="triangle-float3"></path><path d="M-140.27 546.34 a144.29 144.29 0 1 0 288.58 0 a144.29 144.29 0 1 0 -288.58 0z" fill="rgba(28, 83, 142, 0.4)" class="triangle-float3"></path><path d="M169.198,621.447C202.952,621.498,229.967,597.082,247.11,568.005C264.583,538.367,275.162,501.558,257.171,472.232C239.731,443.804,202.542,440.319,169.198,441.006C137.419,441.66,103.865,448.61,87.284,475.729C70.112,503.815,75.564,539.072,91.696,567.769C108.201,597.13,135.516,621.396,169.198,621.447" fill="rgba(28, 83, 142, 0.4)" class="triangle-float3"></path><path d="M437.38164884858264 550.4272566354033L617.248748550592 602.18887989052 580.4437673909131 442.76899194388784z" fill="rgba(28, 83, 142, 0.4)" class="triangle-float3"></path><path d="M421.31 240.05 a186.48 186.48 0 1 0 372.96 0 a186.48 186.48 0 1 0 -372.96 0z" fill="rgba(28, 83, 142, 0.4)" class="triangle-float1"></path><path d="M335.93 213.44 a95.71 95.71 0 1 0 191.42 0 a95.71 95.71 0 1 0 -191.42 0z" fill="rgba(28, 83, 142, 0.4)" class="triangle-float3"></path><path d="M1338.162448480164 518.7759538303942L1284.5203874895174 466.97441767421054 1233.6391137505652 573.338277238272z" fill="rgba(28, 83, 142, 0.4)" class="triangle-float1"></path><path d="M1185.3363561996268 341.1397399775659L1104.7638950911019 331.2466857194894 1130.2105442582495 457.05190451131494z" fill="rgba(28, 83, 142, 0.4)" class="triangle-float2"></path><path d="M-16.57527208189488 111.51531411959976L12.942870081745912 250.38725451852937 122.29666831703473 81.99717195595898z" fill="rgba(28, 83, 142, 0.4)" class="triangle-float1"></path><path d="M759.0876418847861 72.91517037417567L612.9160184067835 52.37208840077353 738.5445599113839 219.08679385217823z" fill="rgba(28, 83, 142, 0.4)" class="triangle-float2"></path><path d="M1099.1686217840281 429.41346700443756L1186.3181496681523 390.61199727932933 1147.5166799430442 303.46246939520506 1060.3671520589198 342.26393912031335z" fill="rgba(28, 83, 142, 0.4)" class="triangle-float2"></path><path d="M57.68 107.9 a105.78 105.78 0 1 0 211.56 0 a105.78 105.78 0 1 0 -211.56 0z" fill="rgba(28, 83, 142, 0.4)" class="triangle-float2"></path><path d="M981.6174406371897 206.25747601605704L1047.6286767531801 217.89703797322318 1032.082401630934 113.06040282065455z" fill="rgba(28, 83, 142, 0.4)" class="triangle-float3"></path><path d="M438.853,64.062C458.255,64.674,477.336,55.491,486.832,38.56C496.151,21.946,492.15,2.079,482.984,-14.62C473.383,-32.112,458.806,-49.015,438.853,-48.853C419.086,-48.692,404.911,-31.531,395.948,-13.912C387.913,1.883,387.302,20.163,395.845,35.689C404.719,51.816,420.455,63.481,438.853,64.062" fill="rgba(28, 83, 142, 0.4)" class="triangle-float3"></path><path d="M503.10137459384777 559.5093174716936L420.27464925830793 441.2204947787659 301.9858265653802 524.0472201143058 384.81255190092 642.3360428072335z" fill="rgba(28, 83, 142, 0.4)" class="triangle-float1"></path><path d="M1315.794238787989 510.25208714035637L1355.291791942067 591.2340721051454 1436.2737769068563 551.7365189510672 1396.776223752778 470.75453398627815z" fill="rgba(28, 83, 142, 0.4)" class="triangle-float3"></path><path d="M960.6830799637489 82.29322484437401L1014.0902212362699 135.70036611689503 1067.497362508791 28.886083571852964z" fill="rgba(28, 83, 142, 0.4)" class="triangle-float3"></path><path d="M1308.4307507723452 439.68549212591756L1188.1725350332579 587.9029773770527 1352.4860823313793 616.875889061628z" fill="rgba(28, 83, 142, 0.4)" class="triangle-float1"></path><path d="M1093.803,407.762C1136.844,407.4,1176.789,386.484,1199.485,349.911C1223.545,311.14,1232.261,261.638,1208.754,222.529C1185.796,184.333,1138.359,174.985,1093.803,174.087C1047.094,173.145,994.936,177.888,970.533,217.726C945.384,258.783,958.798,311.32,985,351.713C1008.796,388.397,1050.079,408.129,1093.803,407.762" fill="rgba(28, 83, 142, 0.4)" class="triangle-float3"></path><path d="M1244.8 168.4 a168.22 168.22 0 1 0 336.44 0 a168.22 168.22 0 1 0 -336.44 0z" fill="rgba(28, 83, 142, 0.4)" class="triangle-float2"></path></g><defs><mask id="SvgjsMask1026"><rect width="1440" height="560" fill="#ffffff"></rect></mask><style>
            @keyframes float1 {
                0%{transform: translate(0, 0)}
                50%{transform: translate(-10px, 0)}
                100%{transform: translate(0, 0)}
            }

            .triangle-float1 {
                animation: float1 5s infinite;
            }

            @keyframes float2 {
                0%{transform: translate(0, 0)}
                50%{transform: translate(-5px, -5px)}
                100%{transform: translate(0, 0)}
            }

            .triangle-float2 {
                animation: float2 4s infinite;
            }

            @keyframes float3 {
                0%{transform: translate(0, 0)}
                50%{transform: translate(0, -10px)}
                100%{transform: translate(0, 0)}
            }

            .triangle-float3 {
                animation: float3 6s infinite;
            }
        </style></defs></svg>