<svg xmlns="http://www.w3.org/2000/svg" version="1.1" xmlns:xlink="http://www.w3.org/1999/xlink" xmlns:svgjs="http://svgjs.com/svgjs" width="1440" height="560" preserveAspectRatio="none" viewBox="0 0 1440 560"><g mask="url(&quot;#SvgjsMask1001&quot;)" fill="none"><path d="M1488 560L0 560 L0 316.5Q42.61 287.11, 72 329.72Q115.24 300.96, 144 344.2Q177.93 258.13, 264 292.05Q316.38 272.43, 336 324.81Q411.63 280.44, 456 356.08Q478.27 258.35, 576 280.61Q654.3 238.91, 696 317.21Q771.22 272.43, 816 347.65Q866.58 326.23, 888 376.8Q918.91 287.71, 1008 318.62Q1076.45 267.07, 1128 335.52Q1173.23 260.75, 1248 305.98Q1341.68 279.66, 1368 373.34Q1387.74 273.08, 1488 292.82z" fill="#182f5d"></path><path d="M1464 560L0 560 L0 351.86Q61.87 341.73, 72 403.6Q101.8 361.4, 144 391.2Q187.77 314.97, 264 358.73Q307.47 330.2, 336 373.66Q401.32 366.99, 408 432.31Q461.5 365.81, 528 419.32Q582.08 353.39, 648 407.47Q679.86 319.33, 768 351.19Q810.05 321.24, 840 363.28Q923.88 327.16, 960 411.04Q1007.6 338.64, 1080 386.24Q1135.34 369.58, 1152 424.92Q1177.13 378.06, 1224 403.19Q1258.42 317.61, 1344 352.03Q1421.14 309.17, 1464 386.31z" fill="#25467d"></path><path d="M1488 560L0 560 L0 433.07Q64.88 377.95, 120 442.84Q170.75 421.58, 192 472.33Q258.11 418.44, 312 484.55Q342.14 394.69, 432 424.84Q473.36 394.2, 504 435.56Q592.63 404.19, 624 492.82Q668.83 465.64, 696 510.47Q697.82 440.29, 768 442.1Q822.04 376.14, 888 430.19Q988.8 410.99, 1008 511.79Q1043.57 427.36, 1128 462.92Q1197.81 412.73, 1248 482.53Q1324.7 439.24, 1368 515.94Q1397.34 425.28, 1488 454.61z" fill="#356cb1"></path><path d="M1464 560L0 560 L0 569.09Q-0.62 496.47, 72 495.85Q134.13 437.98, 192 500.1Q270.87 506.97, 264 585.83Q321.31 523.14, 384 580.46Q403.75 528.21, 456 547.96Q502.11 522.07, 528 568.17Q542.8 510.97, 600 525.77Q647.45 501.22, 672 548.67Q708.38 465.05, 792 501.44Q882.25 471.7, 912 561.95Q961.22 491.17, 1032 540.4Q1111.14 499.54, 1152 578.68Q1173.95 480.63, 1272 502.59Q1346.93 457.52, 1392 532.45Q1438.36 506.81, 1464 553.17z" fill="white"></path></g><defs><mask id="SvgjsMask1001"><rect width="1440" height="560" fill="#ffffff"></rect></mask></defs></svg>